<svg width="1952" height="735" viewBox="0 0 1952 735" fill="none" xmlns="http://www.w3.org/2000/svg">
<g clip-path="url(#clip0_101_18)">
<path d="M1436.62 603.306L1493.01 460.707H1655.83L1578.56 244.392L1675.2 0.00302124L1952 734.935H1747.87L1700.57 603.306H1436.62Z" fill="black"/>
<path d="M1262.47 734.937L1558.79 0.00405884L1362.34 0.00503541L1159.64 474.936L1015.5 0.00601197H864.499L709.731 474.936L600.585 258.52L501.812 562.821L602.096 734.937H795.427L935.284 309.027L1068.63 734.937H1262.47Z" fill="#FF8000"/>
<path d="M186.476 482.646H307.479C344.133 482.646 376.772 478.554 405.396 470.372L436.689 373.965L524.148 104.518C517.484 93.956 509.876 83.9692 501.324 74.5594C456.419 24.8545 390.719 0.00289917 304.222 0.00289917H0V734.935H186.476V482.646ZM346.642 169.081C364.182 186.734 372.951 210.357 372.951 239.952C372.951 269.774 365.238 293.427 349.813 310.909C332.903 330.334 301.766 340.046 256.404 340.046H186.476V142.6H256.918C299.195 142.6 329.103 151.427 346.642 169.081Z" fill="black"/>
</g>
<defs>
<clipPath id="clip0_101_18">
<rect width="1952" height="734.935" fill="white"/>
</clipPath>
</defs>
</svg>
