<svg width="944" height="944" viewBox="0 0 944 944" fill="none" xmlns="http://www.w3.org/2000/svg">
<circle cx="180.32" cy="342.333" r="109.333" fill="#80DFFF"/>
<circle cx="764.32" cy="342.333" r="109.333" fill="#FFE380"/>
<path fill-rule="evenodd" clip-rule="evenodd" d="M674.404 800.127H900.461C915.67 800.127 928 787.797 928 772.588V545.564C928 505.005 895.121 472.127 854.563 472.127H673.437C671.631 472.127 669.84 472.192 668.067 472.32C679.505 493.44 686 517.628 686 543.333V766C686 778.844 681.676 790.679 674.404 800.127Z" fill="#FFE380"/>
<path fill-rule="evenodd" clip-rule="evenodd" d="M275.933 472.32C264.495 493.44 258 517.628 258 543.333V766C258 778.844 262.324 790.679 269.596 800.127H43.5388C28.3296 800.127 16 787.797 16 772.588V545.564C16 505.005 48.8788 472.127 89.4369 472.127H270.563C272.369 472.127 274.16 472.192 275.933 472.32Z" fill="#80DFFF"/>
<circle cx="472.374" cy="264" r="128" fill="#FF8084"/>
<path d="M280 543.953C280 473.261 337.308 415.953 408 415.953H536C606.692 415.953 664 473.261 664 543.953V751.953C664 778.463 642.51 799.953 616 799.953H328C301.49 799.953 280 778.463 280 751.953V543.953Z" fill="#FF8084"/>
</svg>
