
<svg width="384" height="384" viewBox="0 0 384 384" fill="none" xmlns="http://www.w3.org/2000/svg">
<path fill-rule="evenodd" clip-rule="evenodd" d="M384 384L383.999 310.627L383.999 288L368 303.999L367.999 304L288 384H16H0V368V118.629V96V95.9987V73.3737V0L0.000980653 73.3727L0.00128307 96L16 80.0011L16.0011 80L96 0H368H384V16V265.371V288V288.001V310.626V384ZM368 16V281.371L281.373 368H16V102.629L102.627 16H368ZM260.67 245.532L207.688 192.551L260.67 139.57L245.532 124.432L192.551 177.413L139.57 124.432L124.432 139.57L177.413 192.551L124.432 245.532L139.57 260.67L192.551 207.688L245.532 260.67L260.67 245.532Z" fill="black"/>
<path fill-rule="evenodd" clip-rule="evenodd" d="M384 384L383.999 310.627L383.999 288L368 303.999L367.999 304L288 384H16H0V368V118.629V96V95.9987V73.3737V0L0.000980653 73.3727L0.00128307 96L16 80.0011L16.0011 80L96 0H368H384V16V265.371V288V288.001V310.626V384ZM368 16V281.371L281.373 368H16V102.629L102.627 16H368ZM260.67 245.532L207.688 192.551L260.67 139.57L245.532 124.432L192.551 177.413L139.57 124.432L124.432 139.57L177.413 192.551L124.432 245.532L139.57 260.67L192.551 207.688L245.532 260.67L260.67 245.532Z" fill="black"/>
</svg>
