<svg width="320" height="302" viewBox="0 0 320 302" fill="none" xmlns="http://www.w3.org/2000/svg">
<rect x="175" y="141" width="8" height="153" rx="4" fill="#D9D9D9" stroke="black" stroke-width="8" stroke-linejoin="round"/>
<path fill-rule="evenodd" clip-rule="evenodd" d="M258.683 93.2237L256.687 112.695L274.572 120.648C285.481 125.499 293 136.401 293 149V172C293 189.121 279.121 203 262 203H218V230H262C294.033 230 320 204.033 320 172V149C320 125.349 305.844 105.004 285.542 95.9771C285.845 93.0259 286 90.0311 286 87C286 38.9512 247.049 0 199 0C165.33 0 136.128 19.1265 121.665 47.1071C94.3202 48.6387 71.3227 66.4466 62.2033 91H58C25.9675 91 0 116.967 0 149V172C0 204.033 25.9675 230 58 230H141V203H58C40.8792 203 27 189.121 27 172V149C27 131.879 40.8792 118 58 118H62.2033H80.9773L87.5139 100.401C92.9984 85.6342 106.84 74.9798 123.175 74.0649L138.57 73.2026L145.65 59.5049C155.659 40.1405 175.818 27 199 27C232.137 27 259 53.8629 259 87C259 89.11 258.892 91.1859 258.683 93.2237Z" fill="black"/>
<rect x="206.19" y="257.312" width="8" height="46.0082" rx="4" transform="rotate(45 206.19 257.312)" fill="#D9D9D9" stroke="black" stroke-width="8" stroke-linejoin="round"/>
<rect x="146.657" y="263.314" width="8" height="46.0082" rx="4" transform="rotate(-45 146.657 263.314)" fill="#D9D9D9" stroke="black" stroke-width="8" stroke-linejoin="round"/>
</svg>
