<svg width="758" height="758" viewBox="0 0 758 758" fill="none" xmlns="http://www.w3.org/2000/svg">
<path d="M531.17 338.347C517.072 266.75 454.253 213 378.787 213C318.871 213 266.833 247.035 240.918 296.841C178.513 303.482 130 356.401 130 420.527C130 489.219 185.77 545.043 254.394 545.043H523.913C581.134 545.043 627.575 498.557 627.575 441.28C627.575 386.493 585.073 342.082 531.17 338.347V338.347Z" fill="black"/>
<path d="M144.469 172.747L129.153 157.43L115.78 174.464C71.5287 230.82 45.2253 301.813 45.2253 378.998C45.2253 563.406 194.594 712.775 379.002 712.775C456.183 712.775 527.18 686.468 583.536 642.22L600.569 628.844L585.253 613.531L144.469 172.747V172.747ZM613.531 585.253L628.847 600.566L642.22 583.532C686.471 527.18 712.775 456.183 712.775 378.998C712.775 194.594 563.406 45.2253 379.002 45.2253C301.817 45.2253 230.82 71.5287 174.468 115.776L157.43 129.153L172.747 144.465L613.531 585.253ZM5 378.998C5 172.555 172.559 5 379.002 5C585.441 5 753 172.555 753 378.998C753 585.441 585.441 753 379.002 753C172.559 753 5 585.441 5 378.998Z" fill="black" stroke="black" stroke-width="10"/>
</svg>
