<svg width="1862" height="1862" viewBox="0 0 1862 1862" fill="none" xmlns="http://www.w3.org/2000/svg">
<rect x="433" y="26" width="995" height="1810" rx="103" stroke="black" stroke-width="52"/>
<mask id="mask0_118_66" style="mask-type:alpha" maskUnits="userSpaceOnUse" x="674" y="744" width="513" height="374">
<path fill-rule="evenodd" clip-rule="evenodd" d="M1002.71 816C1002.71 855.765 970.475 888 930.71 888C890.946 888 858.71 855.765 858.71 816C858.71 776.235 890.946 744 930.71 744C970.475 744 1002.71 776.235 1002.71 816ZM766.43 921.562C800.395 921.562 827.93 894.028 827.93 860.062C827.93 826.097 800.395 798.562 766.43 798.562C732.464 798.562 704.93 826.097 704.93 860.062C704.93 894.028 732.464 921.562 766.43 921.562ZM1094.93 921.562C1128.9 921.562 1156.43 894.028 1156.43 860.062C1156.43 826.097 1128.9 798.562 1094.93 798.562C1060.96 798.562 1033.43 826.097 1033.43 860.062C1033.43 894.028 1060.96 921.562 1094.93 921.562ZM1029.9 1117.57L1029.97 1117.57L1030.04 1117.57H1159.46C1174.67 1117.57 1187 1105.24 1187 1090.03V1006.51C1187 965.95 1154.12 933.071 1113.56 933.071H1075.94C1060.01 933.071 1045.28 938.138 1033.24 946.748C1044.43 965.021 1050.87 986.508 1050.87 1009.5V1073.87C1050.87 1091.55 1042.69 1107.31 1029.9 1117.57ZM810.125 1009.5C810.125 986.508 816.571 965.021 827.755 946.748C815.724 938.138 800.985 933.071 785.063 933.071H747.437C706.879 933.071 674 965.95 674 1006.51V1090.03C674 1105.24 686.33 1117.57 701.539 1117.57H830.961C831.007 1117.57 831.052 1117.57 831.098 1117.57C818.311 1107.31 810.125 1091.55 810.125 1073.87V1009.5ZM930.5 901.474C870.853 901.474 822.5 949.827 822.5 1009.47V1069.47C822.5 1095.98 843.99 1117.47 870.5 1117.47H990.5C1017.01 1117.47 1038.5 1095.98 1038.5 1069.47V1009.47C1038.5 949.827 990.147 901.474 930.5 901.474Z" fill="#FF8084"/>
</mask>
<g mask="url(#mask0_118_66)">
<rect x="599" y="625" width="663" height="615" fill="black"/>
</g>
<path d="M407 1659H1454V1733C1454 1804.24 1396.24 1862 1325 1862H536C464.755 1862 407 1804.24 407 1733V1659Z" fill="black"/>
<path d="M407 157H1454V129C1454 57.7553 1396.24 0 1325 0H536C464.755 0 407 57.7553 407 129V157Z" fill="black"/>
</svg>
