<svg width="256" height="256" viewBox="0 0 256 256" fill="none" xmlns="http://www.w3.org/2000/svg">
<path d="M23.1488 67.4641L128 6.9282L232.851 67.4641V188.536L128 249.072L23.1488 188.536V67.4641Z" stroke="#000" stroke-width="12"/>
<circle cx="86.4052" cy="109.231" r="15.404" fill="#000"/>
<circle cx="168.685" cy="109.231" r="15.404" fill="#000"/>
<path d="M152.443 172.373C154.153 173.241 156.088 173.73 158.137 173.73H179.142C186.103 173.73 191.746 168.087 191.746 161.126V150.624C191.746 137.863 181.401 127.518 168.64 127.518C163.166 127.518 158.137 129.421 154.179 132.602C156.395 136.799 157.65 141.584 157.65 146.661V160.366C157.65 165.103 155.648 169.372 152.443 172.373Z" fill="#000"/>
<path d="M100.821 132.602C98.6045 136.799 97.3495 141.584 97.3495 146.661V160.366C97.3495 165.103 99.3523 169.372 102.557 172.373C100.847 173.241 98.9119 173.73 96.8628 173.73H75.8574C68.8968 173.73 63.2542 168.087 63.2542 161.126V150.624C63.2542 137.863 73.599 127.518 86.3601 127.518C91.8335 127.518 96.8625 129.421 100.821 132.602Z" fill="#000"/>
<path d="M145.587 98.195C145.587 108.155 137.513 116.229 127.553 116.229C117.593 116.229 109.519 108.155 109.519 98.195C109.519 88.2352 117.593 80.1611 127.553 80.1611C137.513 80.1611 145.587 88.2352 145.587 98.195Z" fill="#000"/>
<path d="M100.449 146.655C100.449 131.715 112.56 119.604 127.5 119.604C142.44 119.604 154.551 131.715 154.551 146.655V158.95C154.551 167.099 147.945 173.705 139.796 173.705H115.204C107.055 173.705 100.449 167.099 100.449 158.95V146.655Z" fill="#000"/>
</svg>
